<svg width="80" height="80" viewBox="0 0 80 80" fill="none" xmlns="http://www.w3.org/2000/svg">
<g clip-path="url(#clip0_51_116)">
<path fill-rule="evenodd" clip-rule="evenodd" d="M24.6927 3.04482C29.5457 1.03463 34.7471 0 40 0C45.2529 0 50.4543 1.03463 55.3073 3.04482C60.1604 5.05501 64.5699 8.00138 68.2843 11.7157C71.9986 15.4301 74.945 19.8396 76.9552 24.6927C78.9654 29.5457 80 34.7471 80 40C80 50.6087 75.7857 60.7828 68.2843 68.2843C60.7828 75.7857 50.6087 80 40 80C34.7471 80 29.5457 78.9654 24.6927 76.9552C19.8396 74.945 15.4301 71.9986 11.7157 68.2843C4.21427 60.7828 0 50.6087 0 40C0 29.3913 4.21427 19.2172 11.7157 11.7157C15.4301 8.00138 19.8396 5.05501 24.6927 3.04482ZM40.3571 62.1429C52.3891 62.1429 62.1429 52.3891 62.1429 40.3571C62.1429 28.3252 52.3891 18.5714 40.3571 18.5714C28.3252 18.5714 18.5714 28.3252 18.5714 40.3571C18.5714 52.3891 28.3252 62.1429 40.3571 62.1429Z" fill="#3F2AFF"/>
<g clip-path="url(#clip1_51_116)">
<path d="M39.9992 43.1122V33.8508C39.7366 33.8751 39.4771 33.916 39.213 33.9282H31.6515C31.2326 33.9282 30.8926 34.2682 30.8926 34.6871V35.4459H28.616C28.1971 35.4459 27.8571 35.7859 27.8571 36.2048V40.7581C27.8571 41.177 28.1971 41.517 28.616 41.517H30.8926V42.2759C30.8926 42.6948 31.2326 43.0348 31.6515 43.0348H32.1114L35.1621 51.1669C35.3488 51.6541 35.7662 52.0078 36.2792 52.111C36.3809 52.1322 36.4826 52.1428 36.5827 52.1428C36.988 52.1428 37.3735 51.982 37.6497 51.6936L39.4726 49.8859C39.9385 49.42 40.0493 48.693 39.7518 48.1299L37.205 43.0348H39.2206C39.4817 43.0469 39.7397 43.0879 39.9992 43.1122Z" fill="#212133"/>
<path d="M52.0178 28.2244C52.0026 28.1986 51.9889 28.1774 51.9692 28.1531C51.8857 28.0468 51.781 27.9603 51.652 27.9102C51.6474 27.9087 51.6444 27.9026 51.6398 27.9011C51.6247 27.8966 51.611 27.9042 51.5958 27.8996C51.5275 27.8799 51.4592 27.8571 51.3833 27.8571C51.3317 27.8571 51.2862 27.8768 51.2361 27.8875C51.2073 27.8935 51.18 27.8951 51.1511 27.9042C51.0206 27.9467 50.9083 28.0195 50.8187 28.1197C50.8127 28.1258 50.8036 28.1273 50.7975 28.1333C48.4313 31.0065 45.1317 32.928 41.5179 33.6322V43.3322C45.1317 44.0365 48.4313 45.9564 50.7975 48.8296C50.8036 48.8371 50.8142 48.8402 50.8218 48.8493C50.8749 48.9085 50.9402 48.9555 51.01 48.995C51.0327 49.0087 51.0509 49.0284 51.0737 49.039C51.1693 49.08 51.2725 49.1058 51.3833 49.1058C51.4699 49.1058 51.5548 49.0906 51.6398 49.0618C51.6444 49.0603 51.6474 49.0542 51.652 49.0527C51.781 49.0026 51.8857 48.9176 51.9692 48.8098C51.9874 48.7855 52.0011 48.7643 52.0178 48.7385C52.0906 48.6216 52.1422 48.4926 52.1422 48.3469V28.616C52.1422 28.4703 52.0906 28.3413 52.0178 28.2244Z" fill="#212133"/>
</g>
</g>
<defs>
<clipPath id="clip0_51_116">
<rect width="80" height="80" fill="white"/>
</clipPath>
<clipPath id="clip1_51_116">
<rect width="24.2857" height="24.2857" fill="white" transform="translate(27.8571 27.8571)"/>
</clipPath>
</defs>
</svg>
